<?xml version="1.0" standalone="no"?>
<!DOCTYPE svg PUBLIC "-//W3C//DTD SVG 20010904//EN"
 "http://www.w3.org/TR/2001/REC-SVG-20010904/DTD/svg10.dtd">
<svg version="1.0" xmlns="http://www.w3.org/2000/svg"
 width="8333.000000pt" height="8333.000000pt" viewBox="0 0 8333.000000 8333.000000"
 preserveAspectRatio="xMidYMid meet">

<g transform="translate(0.000000,8333.000000) scale(0.100000,-0.100000)"
fill="#000000" stroke="none">
<path d="M0 41665 l0 -41665 41665 0 41665 0 0 41665 0 41665 -41665 0 -41665
0 0 -41665z m67420 -10 l0 -20655 -8115 0 -8115 0 0 3660 c0 2433 -3 3660 -10
3660 -6 0 -10 53 -10 140 0 87 -4 140 -10 140 -6 0 -10 42 -10 105 0 63 -4
105 -10 105 -6 0 -10 30 -10 70 0 40 -4 70 -10 70 -6 0 -10 27 -10 60 0 33 -4
60 -10 60 -6 0 -10 27 -10 60 0 33 -4 60 -10 60 -5 0 -10 18 -10 40 0 22 -4
40 -10 40 -5 0 -10 18 -10 40 0 22 -4 40 -10 40 -5 0 -10 18 -10 40 0 22 -4
40 -10 40 -5 0 -10 16 -10 35 0 19 -4 35 -10 35 -5 0 -10 14 -10 30 0 17 -4
30 -10 30 -5 0 -10 14 -10 30 0 17 -4 30 -10 30 -5 0 -10 14 -10 30 0 17 -4
30 -10 30 -5 0 -10 9 -10 20 0 11 -4 20 -10 20 -5 0 -10 14 -10 30 0 17 -4 30
-9 30 -5 0 -12 18 -16 40 -4 22 -11 40 -16 40 -5 0 -9 9 -9 20 0 11 -4 20 -10
20 -5 0 -10 9 -10 20 0 11 -4 20 -10 20 -5 0 -10 9 -10 20 0 11 -4 20 -10 20
-5 0 -10 8 -10 18 0 10 -9 24 -20 32 -11 8 -20 21 -20 30 0 9 -9 22 -20 30
-11 8 -20 21 -20 30 0 9 -9 22 -20 30 -11 8 -20 21 -20 28 0 15 -56 72 -71 72
-5 0 -9 7 -9 15 0 17 -144 165 -161 165 -6 0 -28 18 -49 40 -21 22 -44 40 -50
40 -7 0 -25 14 -40 30 -15 17 -34 30 -42 30 -7 0 -20 9 -28 20 -8 11 -22 20
-32 20 -10 0 -18 5 -18 10 0 6 -9 10 -20 10 -11 0 -20 5 -20 10 0 6 -7 10 -15
10 -8 0 -15 5 -15 10 0 6 -9 10 -20 10 -11 0 -20 5 -20 10 0 6 -9 10 -20 10
-11 0 -20 5 -20 10 0 6 -9 10 -20 10 -11 0 -20 5 -20 10 0 6 -9 10 -20 10 -11
0 -20 5 -20 10 0 6 -13 10 -30 10 -16 0 -30 5 -30 10 0 6 -9 10 -20 10 -11 0
-20 5 -20 10 0 6 -13 10 -30 10 -16 0 -30 5 -30 10 0 6 -13 10 -30 10 -16 0
-30 5 -30 10 0 6 -13 10 -30 10 -16 0 -30 5 -30 10 0 6 -18 10 -40 10 -22 0
-40 5 -40 10 0 6 -18 10 -40 10 -22 0 -40 5 -40 10 0 6 -18 10 -40 10 -22 0
-40 5 -40 10 0 6 -25 10 -55 10 -30 0 -55 5 -55 10 0 6 -22 10 -50 10 -27 0
-50 5 -50 10 0 6 -30 10 -70 10 -40 0 -70 4 -70 10 0 6 -36 10 -89 10 -49 0
-91 4 -93 9 -2 6 -109 13 -245 17 -134 4 -243 11 -243 16 0 4 -7310 8 -16245
8 l-16245 0 0 2135 0 2135 17170 0 c11440 0 17170 3 17170 10 0 6 30 10 70 10
40 0 70 4 70 10 0 6 18 10 40 10 22 0 40 5 40 10 0 6 18 10 40 10 22 0 40 5
40 10 0 6 9 10 20 10 11 0 20 5 20 10 0 6 9 10 20 10 11 0 20 5 20 10 0 6 9
10 20 10 11 0 20 5 20 10 0 6 7 10 16 10 8 0 33 18 54 40 21 22 46 40 54 40 9
0 16 5 16 11 0 6 13 23 28 37 16 15 32 39 36 55 3 15 11 27 16 27 6 0 10 9 10
20 0 11 5 20 10 20 6 0 10 9 10 20 0 11 5 20 10 20 6 0 10 9 10 20 0 11 5 20
10 20 6 0 10 14 10 30 0 17 5 30 10 30 6 0 10 14 10 30 0 17 5 30 10 30 6 0
10 14 10 30 0 17 5 30 10 30 6 0 10 23 10 50 0 28 5 50 10 50 6 0 10 23 10 50
0 28 5 50 10 50 6 0 10 28 10 65 0 37 4 65 10 65 6 0 10 43 10 110 0 67 4 110
10 110 6 0 10 70 10 190 0 120 4 190 10 190 7 0 10 177 10 510 0 333 -3 510
-10 510 -6 0 -10 67 -10 180 0 113 -4 180 -10 180 -6 0 -10 40 -10 100 0 60
-4 100 -10 100 -6 0 -10 28 -10 65 0 37 -4 65 -10 65 -5 0 -10 23 -10 50 0 28
-4 50 -10 50 -5 0 -10 23 -10 50 0 28 -4 50 -10 50 -5 0 -10 14 -10 30 0 17
-4 30 -10 30 -5 0 -10 14 -10 30 0 17 -4 30 -10 30 -5 0 -10 14 -10 30 0 17
-4 30 -10 30 -5 0 -10 14 -10 30 0 17 -4 30 -10 30 -5 0 -10 9 -10 20 0 11 -4
20 -10 20 -5 0 -10 9 -10 20 0 11 -4 20 -10 20 -5 0 -10 9 -10 19 0 11 -7 26
-15 35 -8 8 -15 20 -15 26 0 6 -24 33 -52 61 -29 27 -67 62 -85 79 -18 16 -38
30 -46 30 -7 0 -19 9 -27 20 -8 11 -22 20 -32 20 -10 0 -18 5 -18 10 0 6 -9
10 -20 10 -11 0 -20 5 -20 10 0 6 -13 10 -30 10 -16 0 -30 5 -30 10 0 6 -13
10 -30 10 -16 0 -30 5 -30 10 0 6 -13 10 -30 10 -16 0 -30 5 -30 10 0 6 -22
10 -50 10 -27 0 -50 5 -50 10 0 6 -35 10 -85 10 -50 0 -85 4 -85 10 0 7 -5705
10 -17095 10 l-17095 0 0 2125 0 2125 17095 0 c9402 0 17095 4 17095 8 0 5 60
12 133 16 72 3 134 11 135 16 2 6 17 10 33 10 16 0 29 5 29 10 0 6 14 10 30
10 17 0 30 5 30 10 0 6 14 10 30 10 17 0 30 5 30 10 0 6 9 10 20 10 11 0 20 5
20 10 0 6 8 10 18 10 10 0 24 9 32 20 8 11 20 20 27 20 16 0 183 165 183 181
0 6 7 17 15 25 8 9 15 24 15 35 0 10 5 19 10 19 6 0 10 9 10 20 0 11 5 20 10
20 6 0 10 9 10 20 0 11 5 20 10 20 6 0 10 14 10 30 0 17 5 30 10 30 6 0 10 14
10 30 0 17 5 30 10 30 6 0 10 14 10 30 0 17 5 30 10 30 6 0 10 14 10 30 0 17
5 30 10 30 6 0 10 20 10 45 0 25 5 45 10 45 6 0 10 23 10 50 0 28 5 50 10 50
6 0 10 30 10 70 0 40 4 70 10 70 6 0 10 40 10 100 0 60 4 100 10 100 6 0 10
65 10 175 0 110 4 175 10 175 7 0 10 178 10 515 0 337 -3 515 -10 515 -6 0
-10 68 -10 185 0 117 -4 185 -10 185 -6 0 -10 43 -10 110 0 67 -4 110 -10 110
-6 0 -10 30 -10 70 0 40 -4 70 -10 70 -5 0 -10 23 -10 50 0 28 -4 50 -10 50
-5 0 -10 23 -10 50 0 28 -4 50 -10 50 -5 0 -10 14 -10 30 0 17 -4 30 -10 30
-5 0 -10 14 -10 30 0 17 -4 30 -10 30 -5 0 -10 14 -10 30 0 17 -4 30 -10 30
-5 0 -10 7 -10 15 0 8 -4 15 -10 15 -5 0 -10 9 -10 20 0 11 -4 20 -10 20 -5 0
-10 9 -10 20 0 11 -4 20 -10 20 -5 0 -13 12 -16 28 -4 15 -20 39 -36 54 -15
14 -28 33 -28 42 0 9 -7 16 -16 16 -8 0 -33 18 -54 40 -21 22 -46 40 -54 40
-9 0 -16 5 -16 10 0 6 -9 10 -20 10 -11 0 -20 5 -20 10 0 6 -9 10 -20 10 -11
0 -20 5 -20 10 0 6 -9 10 -20 10 -11 0 -20 5 -20 10 0 6 -18 10 -40 10 -22 0
-40 5 -40 10 0 6 -18 10 -40 10 -22 0 -40 5 -40 10 0 6 -30 10 -70 10 -40 0
-70 4 -70 10 0 7 -5730 10 -17170 10 l-17170 0 0 2130 0 2130 16245 0 c10823
0 16245 3 16245 10 0 6 55 10 145 10 90 0 145 4 145 10 0 6 40 10 100 10 60 0
100 4 100 10 0 6 37 10 90 10 53 0 90 4 90 10 0 6 30 10 70 10 40 0 70 4 70
10 0 6 23 10 50 10 28 0 50 5 50 10 0 6 25 10 55 10 30 0 55 5 55 10 0 6 18
10 40 10 22 0 40 5 40 10 0 6 18 10 40 10 22 0 40 5 40 10 0 6 18 10 40 10 22
0 40 5 40 10 0 6 14 10 30 10 17 0 30 5 30 10 0 6 14 10 30 10 17 0 30 5 30
10 0 6 14 10 30 10 17 0 30 5 30 10 0 6 9 10 20 10 11 0 20 5 20 10 0 6 14 10
30 10 17 0 30 5 30 10 0 6 9 10 20 10 11 0 20 5 20 10 0 6 9 10 20 10 11 0 20
5 20 10 0 6 9 10 20 10 11 0 20 5 20 10 0 6 9 10 20 10 11 0 20 5 20 10 0 6 7
10 15 10 8 0 15 5 15 10 0 6 9 10 20 10 11 0 20 5 20 10 0 6 8 10 18 10 10 0
24 9 32 20 8 11 21 20 28 20 8 0 27 14 42 30 15 17 33 30 39 30 12 0 25 9 66
48 13 12 29 22 35 22 14 0 160 147 160 161 0 6 18 28 40 49 22 21 40 45 40 52
0 7 9 20 20 28 11 8 20 21 20 30 0 9 9 22 20 30 11 8 20 21 20 30 0 9 9 22 20
30 11 8 20 22 20 32 0 10 5 18 10 18 6 0 10 9 10 20 0 11 5 20 10 20 6 0 10 9
10 20 0 11 5 20 10 20 6 0 10 9 10 20 0 11 4 20 9 20 5 0 12 18 16 40 4 22 11
40 16 40 5 0 9 11 9 25 0 14 5 25 10 25 6 0 10 9 10 20 0 11 5 20 10 20 6 0
10 14 10 30 0 17 5 30 10 30 6 0 10 14 10 30 0 17 5 30 10 30 6 0 10 14 10 30
0 17 5 30 10 30 6 0 10 18 10 40 0 22 5 40 10 40 6 0 10 18 10 40 0 22 5 40
10 40 6 0 10 18 10 40 0 22 5 40 10 40 6 0 10 18 10 40 0 22 5 40 10 40 6 0
10 27 10 60 0 33 4 60 10 60 6 0 10 25 10 55 0 30 5 55 10 55 6 0 10 30 10 70
0 40 4 70 10 70 6 0 10 43 10 110 0 67 4 110 10 110 6 0 10 53 10 140 0 87 4
140 10 140 7 0 10 1227 10 3660 l0 3660 8115 0 8115 0 0 -20655z"/>
<path d="M54860 41650 l0 -17320 1195 0 c790 0 1195 3 1195 10 0 6 37 10 90
10 53 0 90 4 90 10 0 6 27 10 60 10 33 0 60 4 60 10 0 6 27 10 60 10 33 0 60
4 60 10 0 6 16 10 35 10 19 0 35 5 35 10 0 6 18 10 40 10 22 0 40 5 40 10 0 6
14 10 30 10 17 0 30 5 30 10 0 6 14 10 30 10 17 0 30 5 30 10 0 6 14 10 30 10
17 0 30 5 30 10 0 6 14 10 30 10 17 0 30 5 30 10 0 6 14 10 30 10 17 0 30 5
30 10 0 6 9 10 20 10 11 0 20 5 20 10 0 6 9 10 20 10 11 0 20 5 20 10 0 6 9
10 20 10 11 0 20 5 20 10 0 6 14 10 30 10 17 0 30 5 30 10 0 6 9 10 20 10 11
0 20 5 20 10 0 6 9 10 20 10 11 0 20 5 20 10 0 6 9 10 20 10 11 0 20 5 20 10
0 6 6 10 13 10 7 0 19 9 27 20 8 11 22 20 32 20 10 0 18 5 18 10 0 6 8 10 18
10 10 0 24 9 32 20 8 11 22 20 32 20 10 0 18 5 18 10 0 6 8 10 18 10 10 0 24
9 32 20 8 11 21 20 30 20 9 0 22 9 30 20 8 11 21 20 28 20 8 0 27 14 42 30 15
17 33 30 39 30 11 0 22 7 56 38 7 6 19 12 25 12 6 0 29 18 50 40 21 22 44 40
50 40 6 0 38 27 70 60 32 33 65 60 72 60 7 0 24 14 38 31 14 17 85 91 158 165
72 73 132 139 132 144 0 6 32 42 70 80 39 38 70 75 70 82 0 8 9 20 21 28 39
27 79 68 79 80 0 6 18 29 40 50 22 21 40 44 40 50 0 7 14 25 30 40 17 15 30
33 30 40 0 7 14 25 30 40 17 15 30 34 30 42 0 7 9 20 20 28 11 8 20 22 20 32
0 9 11 28 25 42 14 14 25 31 25 38 0 8 9 20 20 28 11 8 20 21 20 30 0 9 9 22
20 30 11 8 20 21 20 30 0 9 9 22 20 30 11 8 20 22 20 32 0 10 5 18 10 18 6 0
10 8 10 18 0 10 9 24 20 32 11 8 20 20 20 27 0 7 5 13 10 13 6 0 10 8 10 18 0
10 9 24 20 32 11 8 20 21 20 30 0 9 9 22 20 30 11 8 20 22 20 32 0 10 5 18 10
18 6 0 10 8 10 18 0 10 9 24 20 32 11 8 20 22 20 32 0 10 5 18 10 18 6 0 10 9
10 20 0 11 5 20 10 20 6 0 10 8 10 18 0 10 9 24 20 32 11 8 20 22 20 32 0 10
5 18 10 18 6 0 10 9 10 20 0 11 5 20 10 20 6 0 10 9 10 20 0 11 5 20 10 20 6
0 10 9 10 20 0 11 5 20 10 20 6 0 10 8 10 18 0 10 9 24 20 32 11 8 20 22 20
32 0 10 5 18 10 18 6 0 10 9 10 20 0 11 5 20 10 20 6 0 10 9 10 20 0 11 5 20
10 20 6 0 10 9 10 20 0 11 5 20 10 20 6 0 10 7 10 15 0 8 5 15 10 15 6 0 10 9
10 20 0 11 5 20 10 20 6 0 10 9 10 20 0 11 5 20 10 20 6 0 10 9 10 20 0 11 5
20 10 20 6 0 10 9 10 20 0 11 4 20 10 20 5 0 12 23 16 50 4 27 10 50 15 50 5
0 9 9 9 20 0 11 5 20 10 20 6 0 10 9 10 20 0 11 5 20 10 20 6 0 10 9 10 20 0
11 5 20 10 20 6 0 10 9 10 20 0 11 5 20 10 20 6 0 10 9 10 20 0 11 5 20 10 20
6 0 10 14 10 30 0 17 5 30 10 30 6 0 10 9 10 20 0 11 5 20 10 20 6 0 10 9 10
20 0 11 5 20 10 20 6 0 10 14 10 30 0 17 5 30 10 30 6 0 10 9 10 20 0 11 5 20
10 20 6 0 10 7 10 15 0 8 5 15 10 15 6 0 10 14 10 30 0 17 5 30 10 30 6 0 10
9 10 20 0 11 5 20 10 20 6 0 10 9 10 20 0 11 5 20 10 20 6 0 10 14 10 30 0 17
5 30 10 30 6 0 10 9 10 20 0 11 5 20 10 20 6 0 10 14 10 30 0 17 5 30 10 30 6
0 10 9 10 20 0 11 5 20 10 20 6 0 10 14 10 30 0 17 5 30 10 30 6 0 10 9 10 20
0 11 5 20 10 20 6 0 10 14 10 30 0 17 5 30 10 30 6 0 10 14 10 30 0 17 5 30
10 30 6 0 10 9 10 20 0 11 5 20 10 20 6 0 10 14 10 30 0 17 5 30 10 30 6 0 10
14 10 30 0 17 5 30 10 30 6 0 10 7 10 15 0 8 5 15 10 15 6 0 10 14 10 30 0 17
5 30 10 30 6 0 10 14 10 30 0 17 5 30 10 30 6 0 10 14 10 30 0 17 5 30 10 30
6 0 10 14 10 30 0 17 5 30 10 30 6 0 10 9 10 20 0 11 5 20 10 20 6 0 10 14 10
30 0 17 5 30 10 30 6 0 10 14 10 30 0 17 5 30 10 30 6 0 10 14 10 30 0 17 5
30 10 30 6 0 10 14 10 30 0 17 5 30 10 30 6 0 10 14 10 30 0 17 4 30 9 30 5 0
12 27 16 60 4 33 11 60 16 60 5 0 9 16 9 35 0 19 5 35 10 35 6 0 10 14 10 30
0 17 5 30 10 30 6 0 10 14 10 30 0 17 5 30 10 30 6 0 10 14 10 30 0 17 5 30
10 30 6 0 10 14 10 30 0 17 5 30 10 30 6 0 10 18 10 40 0 22 5 40 10 40 6 0
10 14 10 30 0 17 5 30 10 30 6 0 10 14 10 30 0 17 5 30 10 30 6 0 10 18 10 40
0 22 5 40 10 40 6 0 10 14 10 30 0 17 5 30 10 30 6 0 10 18 10 40 0 22 5 40
10 40 6 0 10 14 10 30 0 17 5 30 10 30 6 0 10 16 10 35 0 19 5 35 10 35 6 0
10 18 10 40 0 22 5 40 10 40 6 0 10 14 10 30 0 17 5 30 10 30 6 0 10 18 10 40
0 22 5 40 10 40 6 0 10 18 10 40 0 22 5 40 10 40 6 0 10 14 10 30 0 17 5 30
10 30 6 0 10 23 10 50 0 28 5 50 10 50 6 0 10 14 10 30 0 17 5 30 10 30 6 0
10 18 10 40 0 22 5 40 10 40 6 0 10 18 10 40 0 22 5 40 10 40 6 0 10 16 10 35
0 19 5 35 10 35 6 0 10 18 10 40 0 22 5 40 10 40 6 0 10 23 10 50 0 28 5 50
10 50 6 0 10 18 10 40 0 22 5 40 10 40 6 0 10 18 10 40 0 22 5 40 10 40 6 0
10 23 10 50 0 28 5 50 10 50 6 0 10 18 10 40 0 22 5 40 10 40 6 0 10 18 10 40
0 22 5 40 10 40 6 0 10 23 10 50 0 28 5 50 10 50 6 0 10 16 10 35 0 19 5 35
10 35 6 0 10 23 10 50 0 28 5 50 10 50 6 0 10 23 10 50 0 28 5 50 10 50 6 0
10 18 10 40 0 22 5 40 10 40 6 0 10 23 10 50 0 28 4 50 9 50 5 0 12 45 16 100
4 55 11 100 16 100 5 0 9 23 9 50 0 28 5 50 10 50 6 0 10 25 10 55 0 30 5 55
10 55 6 0 10 23 10 50 0 28 5 50 10 50 6 0 10 23 10 50 0 28 5 50 10 50 6 0
10 27 10 60 0 33 4 60 10 60 6 0 10 23 10 50 0 28 5 50 10 50 6 0 10 23 10 50
0 28 5 50 10 50 6 0 10 27 10 60 0 33 4 60 10 60 6 0 10 25 10 55 0 30 5 55
10 55 6 0 10 23 10 50 0 28 5 50 10 50 6 0 10 30 10 70 0 40 4 70 10 70 6 0
10 27 10 60 0 33 4 60 10 60 6 0 10 27 10 60 0 33 4 60 10 60 6 0 10 30 10 70
0 40 4 70 10 70 6 0 10 25 10 55 0 30 5 55 10 55 6 0 10 27 10 60 0 33 4 60
10 60 6 0 10 33 10 80 0 47 4 80 10 80 6 0 10 27 10 60 0 33 4 60 10 60 6 0
10 30 10 70 0 40 4 70 10 70 6 0 10 32 10 75 0 43 4 75 10 75 6 0 10 30 10 70
0 40 4 70 10 70 6 0 10 33 10 80 0 47 4 80 10 80 6 0 10 33 10 80 0 47 4 80
10 80 6 0 10 33 10 80 0 47 4 80 10 80 6 0 10 32 10 75 0 43 4 75 10 75 6 0
10 37 10 90 0 53 4 90 10 90 6 0 10 37 10 90 0 53 4 90 10 90 6 0 10 37 10 90
0 53 4 90 10 90 6 0 10 38 10 95 0 57 4 95 10 95 6 0 10 40 10 100 0 60 4 100
10 100 6 0 10 40 10 100 0 60 4 100 10 100 6 0 10 40 10 100 0 60 4 100 10
100 6 0 10 45 10 115 0 70 4 115 10 115 6 0 10 47 10 120 0 73 4 120 10 120 6
0 10 47 10 120 0 73 4 120 10 120 6 0 10 52 10 135 0 83 4 135 10 135 6 0 10
53 10 139 0 77 4 141 9 143 5 2 13 150 17 336 4 182 11 332 15 332 5 0 9 86 9
190 0 120 4 190 10 190 6 0 10 82 10 225 0 143 4 225 10 225 6 0 10 118 10
335 0 217 4 335 10 335 7 0 10 452 10 1335 0 883 -3 1335 -10 1335 -6 0 -10
118 -10 335 0 217 -4 335 -10 335 -6 0 -10 82 -10 225 0 143 -4 225 -10 225
-6 0 -10 70 -10 190 0 105 -4 190 -9 190 -4 0 -11 150 -15 333 -4 185 -12 333
-17 335 -5 2 -9 64 -9 138 0 83 -4 134 -10 134 -6 0 -10 53 -10 140 0 87 -4
140 -10 140 -6 0 -10 47 -10 120 0 73 -4 120 -10 120 -6 0 -10 45 -10 115 0
70 -4 115 -10 115 -6 0 -10 47 -10 120 0 73 -4 120 -10 120 -6 0 -10 40 -10
100 0 60 -4 100 -10 100 -6 0 -10 38 -10 95 0 57 -4 95 -10 95 -6 0 -10 40
-10 100 0 60 -4 100 -10 100 -6 0 -10 40 -10 100 0 60 -4 100 -10 100 -6 0
-10 37 -10 90 0 53 -4 90 -10 90 -6 0 -10 35 -10 85 0 50 -4 85 -10 85 -6 0
-10 37 -10 90 0 53 -4 90 -10 90 -6 0 -10 33 -10 80 0 47 -4 80 -10 80 -6 0
-10 33 -10 80 0 47 -4 80 -10 80 -6 0 -10 33 -10 80 0 47 -4 80 -10 80 -6 0
-10 32 -10 75 0 43 -4 75 -10 75 -6 0 -10 30 -10 70 0 40 -4 70 -10 70 -6 0
-10 33 -10 80 0 47 -4 80 -10 80 -6 0 -10 30 -10 70 0 40 -4 70 -10 70 -6 0
-10 27 -10 60 0 33 -4 60 -10 60 -6 0 -10 32 -10 75 0 43 -4 75 -10 75 -6 0
-10 27 -10 60 0 33 -4 60 -10 60 -6 0 -10 27 -10 60 0 33 -4 60 -10 60 -6 0
-10 30 -10 70 0 40 -4 70 -10 70 -6 0 -10 27 -10 60 0 33 -4 60 -10 60 -6 0
-10 27 -10 60 0 33 -4 60 -10 60 -6 0 -10 28 -10 65 0 37 -4 65 -10 65 -5 0
-10 23 -10 50 0 28 -4 50 -10 50 -6 0 -10 27 -10 60 0 33 -4 60 -10 60 -6 0
-10 27 -10 60 0 33 -4 60 -10 60 -5 0 -10 23 -10 50 0 28 -4 50 -10 50 -5 0
-10 23 -10 50 0 28 -4 50 -10 50 -6 0 -10 27 -10 60 0 33 -4 60 -10 60 -5 0
-10 20 -10 45 0 25 -4 45 -10 45 -5 0 -10 23 -10 50 0 28 -4 50 -10 50 -6 0
-10 27 -10 60 0 33 -4 60 -10 60 -5 0 -10 23 -10 50 0 28 -4 50 -9 50 -5 0
-12 45 -16 100 -4 55 -11 100 -16 100 -5 0 -9 23 -9 50 0 28 -4 50 -10 50 -5
0 -10 18 -10 40 0 22 -4 40 -10 40 -5 0 -10 20 -10 45 0 25 -4 45 -10 45 -5 0
-10 23 -10 50 0 28 -4 50 -10 50 -5 0 -10 18 -10 40 0 22 -4 40 -10 40 -5 0
-10 23 -10 50 0 28 -4 50 -10 50 -5 0 -10 18 -10 40 0 22 -4 40 -10 40 -5 0
-10 18 -10 40 0 22 -4 40 -10 40 -5 0 -10 23 -10 50 0 28 -4 50 -10 50 -5 0
-10 18 -10 40 0 22 -4 40 -10 40 -5 0 -10 18 -10 40 0 22 -4 40 -10 40 -5 0
-10 20 -10 45 0 25 -4 45 -10 45 -5 0 -10 18 -10 40 0 22 -4 40 -10 40 -5 0
-10 18 -10 40 0 22 -4 40 -10 40 -5 0 -10 18 -10 40 0 22 -4 40 -10 40 -5 0
-10 18 -10 40 0 22 -4 40 -10 40 -5 0 -10 14 -10 30 0 17 -4 30 -10 30 -5 0
-10 23 -10 50 0 28 -4 50 -10 50 -5 0 -10 14 -10 30 0 17 -4 30 -10 30 -5 0
-10 18 -10 40 0 22 -4 40 -10 40 -5 0 -10 16 -10 35 0 19 -4 35 -10 35 -5 0
-10 14 -10 30 0 17 -4 30 -10 30 -5 0 -10 18 -10 40 0 22 -4 40 -10 40 -5 0
-10 18 -10 40 0 22 -4 40 -10 40 -5 0 -10 14 -10 30 0 17 -4 30 -10 30 -5 0
-10 18 -10 40 0 22 -4 40 -10 40 -5 0 -10 14 -10 30 0 17 -4 30 -10 30 -5 0
-10 18 -10 40 0 22 -4 40 -10 40 -5 0 -10 14 -10 30 0 17 -4 30 -10 30 -5 0
-10 14 -10 30 0 17 -4 30 -10 30 -5 0 -10 18 -10 40 0 22 -4 40 -10 40 -5 0
-10 11 -10 25 0 14 -4 25 -10 25 -5 0 -10 14 -10 30 0 17 -4 30 -10 30 -5 0
-10 14 -10 30 0 17 -4 30 -10 30 -5 0 -10 14 -10 30 0 17 -4 30 -10 30 -5 0
-10 18 -10 40 0 22 -4 40 -9 40 -5 0 -12 27 -16 60 -4 33 -11 60 -16 60 -5 0
-9 14 -9 30 0 17 -4 30 -10 30 -5 0 -10 14 -10 30 0 17 -4 30 -10 30 -5 0 -10
14 -10 30 0 17 -4 30 -10 30 -5 0 -10 14 -10 30 0 17 -4 30 -10 30 -5 0 -10
14 -10 30 0 17 -4 30 -10 30 -5 0 -10 9 -10 20 0 11 -4 20 -10 20 -5 0 -10 11
-10 25 0 14 -4 25 -10 25 -5 0 -10 14 -10 30 0 17 -4 30 -10 30 -5 0 -10 14
-10 30 0 17 -4 30 -10 30 -5 0 -10 14 -10 30 0 17 -4 30 -10 30 -5 0 -10 9
-10 20 0 11 -4 20 -10 20 -5 0 -10 14 -10 30 0 17 -4 30 -10 30 -5 0 -10 14
-10 30 0 17 -4 30 -10 30 -5 0 -10 9 -10 20 0 11 -4 20 -10 20 -5 0 -10 14
-10 30 0 17 -4 30 -10 30 -5 0 -10 14 -10 30 0 17 -4 30 -10 30 -5 0 -10 9
-10 20 0 11 -4 20 -10 20 -5 0 -10 14 -10 30 0 17 -4 30 -10 30 -5 0 -10 9
-10 20 0 11 -4 20 -10 20 -5 0 -10 14 -10 30 0 17 -4 30 -10 30 -5 0 -10 7
-10 15 0 8 -4 15 -10 15 -5 0 -10 14 -10 30 0 17 -4 30 -10 30 -5 0 -10 9 -10
20 0 11 -4 20 -10 20 -5 0 -10 9 -10 20 0 11 -4 20 -10 20 -5 0 -10 14 -10 30
0 17 -4 30 -10 30 -5 0 -10 9 -10 20 0 11 -4 20 -10 20 -5 0 -10 9 -10 20 0
11 -4 20 -10 20 -5 0 -10 14 -10 30 0 17 -4 30 -10 30 -5 0 -10 9 -10 20 0 11
-4 20 -10 20 -5 0 -10 9 -10 20 0 11 -4 20 -10 20 -5 0 -10 14 -10 30 0 17 -4
30 -10 30 -5 0 -10 9 -10 20 0 11 -4 20 -10 20 -5 0 -10 9 -10 20 0 11 -4 20
-10 20 -5 0 -10 9 -10 20 0 11 -4 20 -10 20 -5 0 -10 9 -10 20 0 11 -4 20 -10
20 -5 0 -10 9 -10 20 0 11 -4 20 -9 20 -4 0 -11 19 -14 42 -3 24 -11 44 -16
46 -6 2 -11 12 -11 23 0 10 -4 19 -10 19 -5 0 -10 9 -10 20 0 11 -4 20 -10 20
-5 0 -10 9 -10 20 0 11 -4 20 -10 20 -5 0 -10 9 -10 20 0 11 -4 20 -10 20 -5
0 -10 9 -10 20 0 11 -4 20 -10 20 -5 0 -10 9 -10 20 0 11 -4 20 -10 20 -5 0
-10 9 -10 20 0 11 -4 20 -10 20 -5 0 -10 9 -10 20 0 11 -4 20 -10 20 -5 0 -10
8 -10 18 0 10 -9 24 -20 32 -11 8 -20 22 -20 32 0 10 -4 18 -10 18 -5 0 -10 9
-10 20 0 11 -4 20 -10 20 -5 0 -10 9 -10 20 0 11 -4 20 -10 20 -5 0 -10 9 -10
20 0 11 -4 20 -10 20 -5 0 -10 8 -10 18 0 10 -9 24 -20 32 -11 8 -20 22 -20
32 0 10 -4 18 -10 18 -5 0 -10 9 -10 20 0 11 -4 20 -10 20 -5 0 -10 9 -10 19
0 11 -9 23 -20 26 -11 3 -20 15 -20 26 0 10 -4 19 -10 19 -5 0 -10 8 -10 18 0
10 -9 24 -20 32 -11 8 -20 21 -20 30 0 9 -9 22 -20 30 -11 8 -20 22 -20 32 0
10 -4 18 -10 18 -5 0 -10 8 -10 18 0 10 -9 24 -20 32 -11 8 -20 22 -20 32 0
10 -4 18 -10 18 -5 0 -10 8 -10 18 0 10 -9 24 -20 32 -11 8 -20 21 -20 30 0 9
-9 22 -20 30 -11 8 -20 21 -20 30 0 9 -9 22 -20 30 -11 8 -20 20 -20 28 0 7
-11 24 -25 38 -14 14 -25 33 -25 42 0 10 -9 24 -20 32 -11 8 -20 21 -20 28 0
8 -13 27 -30 42 -16 15 -30 35 -30 44 0 9 -4 16 -8 16 -14 0 -52 36 -52 49 0
7 -18 30 -40 51 -22 21 -40 44 -40 50 0 6 -22 33 -50 60 -27 27 -50 54 -50 60
0 6 -31 42 -70 80 -38 38 -70 74 -70 80 0 5 -60 71 -132 145 -73 74 -143 146
-156 160 -12 14 -30 25 -38 25 -8 0 -42 27 -74 60 -32 33 -64 60 -70 60 -6 0
-29 18 -50 40 -21 22 -44 40 -50 40 -7 0 -25 14 -40 30 -15 17 -33 30 -40 30
-7 0 -25 14 -40 30 -15 17 -34 30 -42 30 -7 0 -20 9 -28 20 -8 11 -21 20 -30
20 -9 0 -22 9 -30 20 -8 11 -22 20 -32 20 -10 0 -18 5 -18 10 0 6 -8 10 -18
10 -10 0 -24 9 -32 20 -8 11 -22 20 -32 20 -10 0 -18 5 -18 10 0 6 -8 10 -18
10 -10 0 -24 9 -32 20 -8 11 -20 20 -27 20 -7 0 -13 5 -13 10 0 6 -9 10 -20
10 -11 0 -20 5 -20 10 0 6 -9 10 -20 10 -11 0 -20 5 -20 10 0 6 -9 10 -20 10
-11 0 -20 5 -20 10 0 6 -13 10 -30 10 -16 0 -30 5 -30 10 0 6 -9 10 -20 10
-11 0 -20 5 -20 10 0 6 -9 10 -20 10 -11 0 -20 5 -20 10 0 6 -9 10 -20 10 -11
0 -20 5 -20 10 0 6 -13 10 -30 10 -16 0 -30 5 -30 10 0 6 -13 10 -30 10 -16 0
-30 5 -30 10 0 6 -13 10 -30 10 -16 0 -30 4 -30 9 0 5 -27 12 -60 16 -33 4
-60 11 -60 16 0 5 -18 9 -40 9 -22 0 -40 5 -40 10 0 6 -16 10 -35 10 -19 0
-35 5 -35 10 0 6 -27 10 -60 10 -33 0 -60 4 -60 10 0 6 -27 10 -60 10 -33 0
-60 4 -60 10 0 6 -37 10 -90 10 -53 0 -90 4 -90 10 0 7 -405 10 -1195 10
l-1195 0 0 -17320z"/>
</g>
</svg>
